<svg xmlns="http://www.w3.org/2000/svg" xmlns:xlink="http://www.w3.org/1999/xlink" xmlns:sodipodi="http://inkscape.sourceforge.net/DTD/sodipodi-0.dtd" sodipodi:docname="document-save.svg" sodipodi:docbase="/home/jimmac/gfx/ximian/tango-icon-theme/scalable/actions" sodipodi:version=".32" height="48" width="48"><defs><linearGradient id="m"><stop offset="0" stop-color="#204a87"/><stop offset="1" stop-color="#204a87" stop-opacity="0"/></linearGradient><linearGradient id="l"><stop offset="0" stop-color="#3465a4"/><stop offset="1" stop-color="#3465a4" stop-opacity="0"/></linearGradient><linearGradient id="a"><stop offset="0" stop-color="#fff"/><stop offset="1" stop-color="#fff" stop-opacity="0"/></linearGradient><radialGradient xlink:href="#a" id="z" cx="23.447" cy="6.458" fx="23.447" fy="6.458" r="19.063" gradientTransform="matrix(-1.31447 -.01006 -.01023 1.33622 46.22 -4.91)" gradientUnits="userSpaceOnUse"/><linearGradient id="b"><stop offset="0" stop-color="#fff"/><stop offset="1" stop-color="#fff" stop-opacity="0"/></linearGradient><linearGradient xlink:href="#b" id="y" gradientUnits="userSpaceOnUse" gradientTransform="matrix(.9141 0 0 .9141 -3.87 -2.707)" x1="33.06" y1="27.394" x2="12.624" y2="12.584"/><linearGradient id="c"><stop offset="0"/><stop offset="1" stop-opacity="0"/></linearGradient><radialGradient xlink:href="#c" id="v" cx="24.837" cy="36.421" fx="24.837" fy="36.421" r="15.645" gradientTransform="matrix(1 0 0 .53672 0 16.873)" gradientUnits="userSpaceOnUse"/><linearGradient id="k"><stop offset="0" stop-color="#fff"/><stop offset=".5" stop-color="#e6e6e6"/><stop offset=".75" stop-color="#fff"/><stop offset=".842" stop-color="#e1e1e1"/><stop offset="1" stop-color="#fff"/></linearGradient><linearGradient id="j"><stop offset="0" stop-color="#fff" stop-opacity=".255"/><stop offset="1" stop-color="#fff"/></linearGradient><linearGradient id="i"><stop offset="0"/><stop offset="1" stop-opacity="0"/></linearGradient><linearGradient id="h"><stop offset="0" stop-color="#fff"/><stop offset="1" stop-color="#fff" stop-opacity="0"/></linearGradient><linearGradient id="g"><stop offset="0" stop-color="#e4e4e4"/><stop offset="1" stop-color="#d3d3d3"/></linearGradient><linearGradient id="f"><stop offset="0" stop-color="#eee"/><stop offset="1" stop-color="#eee" stop-opacity="0"/></linearGradient><linearGradient id="e"><stop offset="0" stop-color="#bbb"/><stop offset="1" stop-color="#9f9f9f"/></linearGradient><linearGradient id="d"><stop offset="0" stop-color="#838383"/><stop offset="1" stop-color="#bbb" stop-opacity="0"/></linearGradient><linearGradient gradientTransform="translate(.795 3.8)" y2="35.281" x2="24.688" y1="35.281" x1="7.063" gradientUnits="userSpaceOnUse" id="q" xlink:href="#d"/><linearGradient gradientUnits="userSpaceOnUse" y2="40.944" x2="36.183" y1="28.481" x1="7.605" id="o" xlink:href="#e" gradientTransform="translate(0 5.125)"/><linearGradient gradientUnits="userSpaceOnUse" y2="33.759" x2="12.222" y1="37.206" x1="12.277" id="r" xlink:href="#f" gradientTransform="translate(0 5.125)"/><radialGradient gradientUnits="userSpaceOnUse" gradientTransform="matrix(1.28624 .7817 -.71078 1.16955 -2.354 .248)" r="20.936" fy="2.959" fx="15.571" cy="2.959" cx="15.571" id="p" xlink:href="#g"/><linearGradient gradientUnits="userSpaceOnUse" y2="47.621" x2="44.096" y1="4.433" x1="12.378" id="t" xlink:href="#h" gradientTransform="translate(0 5.125)"/><radialGradient gradientUnits="userSpaceOnUse" gradientTransform="matrix(1 0 0 .65103 0 9.456)" r="23.555" fy="27.096" fx="23.202" cy="27.096" cx="23.202" id="n" xlink:href="#i"/><linearGradient gradientUnits="userSpaceOnUse" y2="26.357" x2="23.688" y1="11.319" x1="23.688" id="s" xlink:href="#j" gradientTransform="translate(0 5.125)"/><linearGradient xlink:href="#k" id="u" x1="33.431" y1="31.965" x2="21.748" y2="11.781" gradientUnits="userSpaceOnUse"/><linearGradient xlink:href="#l" id="w" x1="14.752" y1="15.868" x2="8.895" y2="16.743" gradientUnits="userSpaceOnUse"/><linearGradient xlink:href="#m" id="x" x1="12.25" y1="18.25" x2="7" y2="21.118" gradientUnits="userSpaceOnUse"/></defs><sodipodi:namedview showgrid="true" borderopacity=".227" bordercolor="#666666" pagecolor="#ffffff" fill="#3465a4" stroke="#204a87"/><path transform="matrix(1.05253 0 0 .3631 -.512 31.995)" d="M46.757 27.096a23.555 15.335 0 1 1-47.11 0 23.555 15.335 0 1 1 47.11 0z" sodipodi:ry="15.335" sodipodi:rx="23.555" sodipodi:cy="27.096" sodipodi:cx="23.202" sodipodi:type="arc" opacity=".56" color="#000" fill="url(#n)" fill-rule="evenodd" overflow="visible"/><path sodipodi:nodetypes="cccsccccccccc" d="M11.286 13.088c-.625 0-1.032.29-1.282.843L3.536 31.036s-.25.67-.25 1.78v9.65c0 1.084.657 1.626 1.656 1.626h38.562c.985 0 1.594-.717 1.594-1.843v-9.65s.106-.77-.094-1.312l-6.718-17.197c-.185-.512-.637-.988-1.125-1H11.287z" fill="none" stroke="#535353" stroke-width="2" stroke-linecap="round" stroke-linejoin="round"/><path sodipodi:nodetypes="ccccccccc" d="M3.274 32.122l.764-.692 37.61.062 3.462.317v10.438c0 1.125-.607 1.843-1.592 1.843H4.935c-.998 0-1.66-.54-1.66-1.623V32.122z" fill="url(#o)" fill-rule="evenodd"/><path sodipodi:nodetypes="csccccccs" d="M3.55 31.04c-.715 1.464-.002 2.392 1.035 2.392h39c1.12-.024 1.845-1.012 1.428-2.143L38.3 14.08c-.185-.513-.656-.99-1.144-1H11.3c-.626 0-1.037.302-1.287.856L3.55 31.04z" fill="url(#p)" fill-rule="evenodd"/><path color="#000" fill="url(#q)" fill-rule="evenodd" overflow="visible" d="M7.858 36.3h17.625v5.562H7.858z"/><path sodipodi:nodetypes="cscc" d="M7.858 41.862V37.85c1.836 3.18 8.296 4.012 12.937 4.012H7.858z" opacity=".811" fill="url(#r)" fill-rule="evenodd"/><path sodipodi:nodetypes="cccccccc" d="M44.796 30.754c.064 1.25-.414 2.316-1.322 2.343H5.354c-1.288 0-1.866-.325-2.083-.868.093.944.827 1.65 2.085 1.65h38.12c1.075-.034 1.752-1.425 1.35-2.996l-.03-.13z" fill="#fff" fill-rule="evenodd"/><path d="M10.97 15.28c-.047.202-.19.388-.19.595 0 .95.592 1.79 1.345 2.594.24-.155.365-.356.625-.5-.94-.817-1.553-1.718-1.78-2.69zm26.655 0c-.23.97-.842 1.874-1.78 2.69.273.152.403.367.655.53.757-.807 1.313-1.673 1.313-2.625 0-.207-.142-.393-.188-.594zm2.188 8.44c-.614 4.04-7.3 7.25-15.532 7.25-8.21 0-14.86-3.194-15.5-7.22-.03.197-.124.392-.124.594 0 4.318 6.99 7.844 15.625 7.843 8.637 0 15.657-3.525 15.657-7.843 0-.213-.09-.418-.124-.625z" opacity=".691" color="#000" fill="url(#s)" fill-rule="evenodd" overflow="visible"/><path d="M8.662 30.895a1.37 1.016 0 1 1-2.74 0 1.37 1.016 0 1 1 2.74 0zM42.54 30.807a1.37 1.016 0 1 1-2.74 0 1.37 1.016 0 1 1 2.74 0z" sodipodi:ry="1.016" sodipodi:rx="1.37" sodipodi:cy="25.594" sodipodi:cx="7.204" sodipodi:type="arc" color="#000" fill="#fff" fill-opacity=".458" fill-rule="evenodd" overflow="visible"/><path d="M11.643 13.54c-.602 0-.993.28-1.234.813l-6.416 16.59s-.24.647-.24 1.716v9.29c0 1.353.443 1.626 1.594 1.626h37.687c1.323 0 1.534-.317 1.534-1.838v-9.29s.1-.742-.09-1.264l-6.594-16.806c-.178-.492-.55-.826-1.02-.837H11.642z" sodipodi:nodetypes="cccsccccccccc" fill="none" stroke="url(#t)" stroke-linecap="round" stroke-linejoin="round"/><path d="M40.5 36.554v5.02M38.5 36.614v5.02M36.5 36.614v5.02M34.5 36.614v5.02M32.5 36.614v5.02M30.5 36.614v5.02" fill="none" stroke="#fff" stroke-linecap="square" stroke-opacity=".424"/><path d="M39.5 36.604v5.02M37.5 36.664v5.02M35.5 36.664v5.02M33.5 36.664v5.02M31.5 36.664v5.02" opacity=".097" fill="none" stroke="#000" stroke-linecap="square"/><path d="M7.875 36.313v5.53h12.563L8.217 41.5l-.343-5.188z" opacity=".44" fill="#fff" fill-rule="evenodd"/><path sodipodi:type="arc" sodipodi:cx="25" sodipodi:cy="19.563" sodipodi:rx="14.875" sodipodi:ry="6.688" d="M39.875 19.563a14.875 6.688 0 1 1-29.75 0 14.875 6.688 0 1 1 29.75 0z" transform="matrix(1.0378 0 0 1.06075 -1.633 3.03)" opacity=".206" color="#000" fill="url(#u)" fill-rule="evenodd" overflow="visible"/><g color="#000"><path transform="matrix(1.1302 0 0 -.7596 -3.91 53.666)" d="M40.482 36.42a15.645 8.397 0 1 1-31.29 0 15.645 8.397 0 1 1 31.29 0z" sodipodi:ry="8.397" sodipodi:rx="15.645" sodipodi:cy="36.421" sodipodi:cx="24.837" sodipodi:type="arc" opacity=".141" fill="url(#v)" fill-rule="evenodd" overflow="visible"/><path d="M3.203 25.835C2.173-5.385 28.743-.45 28.583 15.79h7.312L24.518 28.774 12.585 15.79h7.542C20.584 4.82 3.41 1.61 3.203 25.834z" sodipodi:nodetypes="ccccccc" fill="url(#w)" stroke="url(#x)" display="block" overflow="visible"/><path sodipodi:nodetypes="ccccccc" d="M7.664 9.104C12.406-.04 28.122 2.718 27.762 16.58h6.317l-9.567 10.957L14.417 16.58h6.456c.272-11.576-9.95-11.045-13.21-7.476z" opacity=".472" fill="none" stroke="url(#y)" stroke-miterlimit="10" display="block" overflow="visible"/><path d="M34.767 16.212l-1.984 2.545c-5.41-1.516-7.886 2.73-15.674 1.732l-3.862-4.41 7.186.083C20.484 4.316 8.344 5 5.03 13.628 8.836-1.262 27.892.806 28.282 16.114l6.484.098z" sodipodi:nodetypes="cccccccc" opacity=".494" fill="url(#z)" overflow="visible"/></g></svg>